<svg width="101" height="101" viewBox="0 0 101 101" fill="none" xmlns="http://www.w3.org/2000/svg">
<g filter="url(#filter0_d_1457_4987)">
<path d="M43.9799 5.66995L2.82992 88.3999C0.729922 92.63 3.79992 97.6 8.52992 97.6H90.8199C95.5499 97.6 98.6199 92.63 96.5199 88.3999L55.3699 5.66995C53.0299 0.959951 46.3099 0.959951 43.9699 5.66995H43.9799Z" fill="#FFE248"/>
<path d="M43.9799 5.66995L2.82992 88.3999C0.729922 92.63 3.79992 97.6 8.52992 97.6H90.8199C95.5499 97.6 98.6199 92.63 96.5199 88.3999L55.3699 5.66995C53.0299 0.959951 46.3099 0.959951 43.9699 5.66995H43.9799Z" stroke="#D7C693" stroke-width="0.5" stroke-miterlimit="10"/>
</g>
<g filter="url(#filter1_d_1457_4987)">
<path d="M49.68 89.8C53.6344 89.8 56.84 86.5943 56.84 82.64C56.84 78.6856 53.6344 75.48 49.68 75.48C45.7257 75.48 42.52 78.6856 42.52 82.64C42.52 86.5943 45.7257 89.8 49.68 89.8Z" fill="white"/>
</g>
<g filter="url(#filter2_d_1457_4987)">
<path d="M56.84 30.0101C56.84 33.9601 56.4 71.1901 49.68 71.1901C42.96 71.1901 42.52 33.9601 42.52 30.0101C42.52 26.0601 45.72 22.8501 49.68 22.8501C53.64 22.8501 56.84 26.0501 56.84 30.0101Z" fill="white"/>
</g>
<defs>
<filter id="filter0_d_1457_4987" x="0.906982" y="0.887451" width="99.5359" height="99.9624" filterUnits="userSpaceOnUse" color-interpolation-filters="sRGB">
<feFlood flood-opacity="0" result="BackgroundImageFix"/>
<feColorMatrix in="SourceAlpha" type="matrix" values="0 0 0 0 0 0 0 0 0 0 0 0 0 0 0 0 0 0 127 0" result="hardAlpha"/>
<feOffset dx="1" dy="1"/>
<feGaussianBlur stdDeviation="1"/>
<feColorMatrix type="matrix" values="0 0 0 0 0.537255 0 0 0 0 0.537255 0 0 0 0 0.537255 0 0 0 0.37 0"/>
<feBlend mode="normal" in2="BackgroundImageFix" result="effect1_dropShadow_1457_4987"/>
<feBlend mode="normal" in="SourceGraphic" in2="effect1_dropShadow_1457_4987" result="shape"/>
</filter>
<filter id="filter1_d_1457_4987" x="40.52" y="74.48" width="18.3201" height="18.3201" filterUnits="userSpaceOnUse" color-interpolation-filters="sRGB">
<feFlood flood-opacity="0" result="BackgroundImageFix"/>
<feColorMatrix in="SourceAlpha" type="matrix" values="0 0 0 0 0 0 0 0 0 0 0 0 0 0 0 0 0 0 127 0" result="hardAlpha"/>
<feOffset dy="1"/>
<feGaussianBlur stdDeviation="1"/>
<feColorMatrix type="matrix" values="0 0 0 0 0.537255 0 0 0 0 0.537255 0 0 0 0 0.537255 0 0 0 0.23 0"/>
<feBlend mode="normal" in2="BackgroundImageFix" result="effect1_dropShadow_1457_4987"/>
<feBlend mode="normal" in="SourceGraphic" in2="effect1_dropShadow_1457_4987" result="shape"/>
</filter>
<filter id="filter2_d_1457_4987" x="40.52" y="21.8501" width="18.3201" height="52.3401" filterUnits="userSpaceOnUse" color-interpolation-filters="sRGB">
<feFlood flood-opacity="0" result="BackgroundImageFix"/>
<feColorMatrix in="SourceAlpha" type="matrix" values="0 0 0 0 0 0 0 0 0 0 0 0 0 0 0 0 0 0 127 0" result="hardAlpha"/>
<feOffset dy="1"/>
<feGaussianBlur stdDeviation="1"/>
<feColorMatrix type="matrix" values="0 0 0 0 0.537255 0 0 0 0 0.537255 0 0 0 0 0.537255 0 0 0 0.23 0"/>
<feBlend mode="normal" in2="BackgroundImageFix" result="effect1_dropShadow_1457_4987"/>
<feBlend mode="normal" in="SourceGraphic" in2="effect1_dropShadow_1457_4987" result="shape"/>
</filter>
</defs>
</svg>
