<svg width="65" height="23" viewBox="0 0 65 23" fill="none" xmlns="http://www.w3.org/2000/svg">
<g clip-path="url(#clip0_310_2304)">
<path d="M49.9896 23.0001V17.6299H40.275V23.0001H49.9896Z" fill="white"/>
<path d="M5.30676 0H0V23H5.30676V0Z" fill="white"/>
<path d="M15.2305 0H9.92371V18.1172H15.2305V0Z" fill="white"/>
<path d="M25.155 0H19.8483V23H25.155V0Z" fill="white"/>
<path d="M10.1438 23.0001V17.6299H0.429166V23.0001H10.1438Z" fill="white"/>
<path d="M24.7803 23.0001V17.6299H15.0656V23.0001H24.7803Z" fill="white"/>
<path d="M35.1534 0H29.8467V18.1172H35.1534V0Z" fill="white"/>
<path d="M45.078 0H39.7712V23H45.078V0Z" fill="white"/>
<path d="M30.0668 23.0001V17.6299H19.923V23.0001H30.0668Z" fill="white"/>
<path d="M44.7031 23.0008V17.6306H34.9885V23.0008H44.7031Z" fill="white"/>
<path d="M55.0763 0H49.7695V18.1172H55.0763V0Z" fill="white"/>
<path d="M65 0H59.6932V23H65V0Z" fill="white"/>
<path d="M64.6261 23.0008V17.6306H54.9115V23.0008H64.6261Z" fill="white"/>
</g>
<defs>
<clipPath id="clip0_310_2304">
<rect width="65" height="23" fill="white"/>
</clipPath>
</defs>
</svg>
