<svg width="65" height="23" viewBox="0 0 65 23" fill="none" xmlns="http://www.w3.org/2000/svg">
<path d="M49.9897 23.0001V17.6299H40.2751V23.0001H49.9897Z" fill="#5B5D6C"/>
<path d="M5.30676 0H0V23H5.30676V0Z" fill="#5B5D6C"/>
<path d="M15.2305 0H9.92371V18.1172H15.2305V0Z" fill="#5B5D6C"/>
<path d="M25.1551 0H19.8483V23H25.1551V0Z" fill="#5B5D6C"/>
<path d="M10.1438 23.0001V17.6299H0.429166V23.0001H10.1438Z" fill="#5B5D6C"/>
<path d="M24.7802 23.0001V17.6299H15.0656V23.0001H24.7802Z" fill="#5B5D6C"/>
<path d="M35.1534 0H29.8466V18.1172H35.1534V0Z" fill="#5B5D6C"/>
<path d="M45.078 0H39.7712V23H45.078V0Z" fill="#5B5D6C"/>
<path d="M30.0667 23.0001V17.6299H19.9229V23.0001H30.0667Z" fill="#5B5D6C"/>
<path d="M44.7031 23.0011V17.6309H34.9885V23.0011H44.7031Z" fill="#5B5D6C"/>
<path d="M55.0763 0H49.7695V18.1172H55.0763V0Z" fill="#5B5D6C"/>
<path d="M65 0H59.6932V23H65V0Z" fill="#5B5D6C"/>
<path d="M64.6261 23.0011V17.6309H54.9115V23.0011H64.6261Z" fill="#5B5D6C"/>
</svg>