<svg width="112" height="39" viewBox="0 0 112 39" fill="none" xmlns="http://www.w3.org/2000/svg">
<g clip-path="url(#clip0_260_1007)">
<path d="M86.136 39V29.894H69.397V39H86.136Z" fill="#121820"/>
<path d="M9.14396 0H0V39H9.14396V0Z" fill="#121820"/>
<path d="M26.2433 0H17.0993V30.7205H26.2433V0Z" fill="#121820"/>
<path d="M43.3441 0H34.2002V39H43.3441V0Z" fill="#1635F4"/>
<path d="M17.4786 39V29.894H0.739515V39H17.4786Z" fill="#121820"/>
<path d="M42.6983 39V29.894H25.9592V39H42.6983Z" fill="#121820"/>
<path d="M60.572 0H51.428V30.7205H60.572V0Z" fill="#1635F4"/>
<path d="M77.6729 0H68.5289V39H77.6729V0Z" fill="#1635F4"/>
<path d="M51.8073 39V29.894H34.3287V39H51.8073Z" fill="#1635F4"/>
<path d="M77.027 39.0016V29.8956H60.2879V39.0016H77.027Z" fill="#1635F4"/>
<path d="M94.9007 0H85.7567V30.7205H94.9007V0Z" fill="#121820"/>
<path d="M112 0H102.856V39H112V0Z" fill="#121820"/>
<path d="M111.356 39.0016V29.8956H94.6166V39.0016H111.356Z" fill="#121820"/>
</g>
<defs>
<clipPath id="clip0_260_1007">
<rect width="112" height="39" fill="white"/>
</clipPath>
</defs>
</svg>
