<svg width="16" height="16" viewBox="0 0 16 16" fill="none" xmlns="http://www.w3.org/2000/svg">
<path d="M12.3052 10.5897V9.28467H9.91388V10.5897H12.3052Z" fill="#121820"/>
<path d="M1.30628 5H0V10.5895H1.30628V5Z" fill="#121820"/>
<path d="M3.74915 5H2.44287V9.4029H3.74915V5Z" fill="#121820"/>
<path d="M6.19202 5H4.88574V10.5895H6.19202V5Z" fill="#1635F4"/>
<path d="M2.49683 10.5898V9.28467H0.105531V10.5898H2.49683Z" fill="#121820"/>
<path d="M6.09985 10.5898V9.28467H3.70856V10.5898H6.09985Z" fill="#121820"/>
<path d="M8.6532 5H7.34692V9.4029H8.6532V5Z" fill="#1635F4"/>
<path d="M11.0961 5H9.78979V10.5895H11.0961V5Z" fill="#1635F4"/>
<path d="M7.40112 10.5898V9.28467H4.90418V10.5898H7.40112Z" fill="#1635F4"/>
<path d="M11.0039 10.5898V9.28467H8.61261V10.5898H11.0039Z" fill="#1635F4"/>
<path d="M13.5573 5H12.251V9.4029H13.5573V5Z" fill="#121820"/>
<path d="M15.9999 5H14.6936V10.5895H15.9999V5Z" fill="#121820"/>
<path d="M15.908 10.5898V9.28467H13.5167V10.5898H15.908Z" fill="#121820"/>
</svg>
